<?xml version="1.0" encoding="UTF-8" standalone="no"?>
<svg
   xmlns:dc="http://purl.org/dc/elements/1.1/"
   xmlns:cc="http://creativecommons.org/ns#"
   xmlns:rdf="http://www.w3.org/1999/02/22-rdf-syntax-ns#"
   xmlns:svg="http://www.w3.org/2000/svg"
   xmlns="http://www.w3.org/2000/svg"
   xmlns:sodipodi="http://sodipodi.sourceforge.net/DTD/sodipodi-0.dtd"
   xmlns:inkscape="http://www.inkscape.org/namespaces/inkscape"
   width="233"
   height="254"
   version="1.1"
   id="svg18"
   sodipodi:docname="logo.svg"
   inkscape:version="0.92.4 (5da689c313, 2019-01-14)">
  <metadata
     id="metadata24">
    <rdf:RDF>
      <cc:Work
         rdf:about="">
        <dc:format>image/svg+xml</dc:format>
        <dc:type
           rdf:resource="http://purl.org/dc/dcmitype/StillImage" />
      </cc:Work>
    </rdf:RDF>
  </metadata>
  <defs
     id="defs22" />
  <sodipodi:namedview
     pagecolor="#ffffff"
     bordercolor="#666666"
     borderopacity="1"
     objecttolerance="10"
     gridtolerance="10"
     guidetolerance="10"
     inkscape:pageopacity="0"
     inkscape:pageshadow="2"
     inkscape:window-width="640"
     inkscape:window-height="480"
     id="namedview20"
     showgrid="false"
     inkscape:zoom="0.92913386"
     inkscape:cx="116.5"
     inkscape:cy="127"
     inkscape:window-x="0"
     inkscape:window-y="30"
     inkscape:window-maximized="0"
     inkscape:current-layer="svg18" />
  <path
     style="fill:#000000; stroke:none;"
     d="M79 17L79.2778 18.5L79.8611 20L80.0278 20.5L81 22L82 22L84 21L84 22L86 23L85.2778 24.5L85.25 25L85.0556 26L85 28L86.5 28L88.0556 27.8889L89 27.6944L91 26.9167L93 25.8056L94 25.1944L95 24.6111L97 23.3889L99 22.25L100 21.75L102 20.6111L103 20L105 19L106 18.75L107 18.7222L108 18.9444L110 19.8333L111 20.3889L113 21.6111L115 22.75L116 23.25L118 24.3889L120 25.6111L122 26.75L123 27.25L125 28.3889L127 29.6111L128 30.1944L130 31.3889L132 32.6111L134 33.75L135 34.25L137 35.3889L139 36.6111L141 37.75L142 38.25L144 39.3889L146 40.6111L148 41.75L149 42.25L151 43.3889L153 44.6111L155 45.8056L156 46.3889L158 47.6111L160 48.75L161 49.25L163 50.3889L165 51.6111L167 52.75L168 53.25L170 54.3889L172 55.6111L174 56.8056L175 57.3889L177 58.6111L179 59.75L180 60.25L182 61.3889L184 62.6111L186 63.75L187 64.25L189 65.3889L191 66.6111L193 67.75L194 68.25L196 69.3889L198 70.6111L200 71.8056L201 72.3611L201.944 72.9167L202.944 73.3611L203.5 73.6667L205 74L205 113L202.944 111.556L201.944 110.806L200 109.472L198.056 108.5L196.5 108.083L195 108L194.278 109.5L194.25 110.056L194.056 111.056L194 113L194 114L193.917 116L193.639 118L193.472 119L193.583 121L193.972 122L195.25 124L196.083 125L198 127L200 129L203 132L204 133L206 135L208 136.917L209 137.75L210 138.5L212 139.417L213 139.5L214 139.417L216 138.5L217 137.75L218 136.917L220 135L222 133L223 132L226 129L228 127L229.917 125L230.75 124L232.028 122L232.417 121L232.528 119L232.361 118L232.083 116L232 114L232 113L231.944 111.056L231.75 110.056L231.722 109.5L231 108L229.5 108.083L227.944 108.5L226 109.472L224.056 110.806L223.056 111.556L221 113L221 80L221 74L221 72L221 71L220.972 69L220.889 68L220.667 67L220.278 66.0278L218.889 64.25L217.972 63.4722L216 62.25L215 61.75L213 60.6111L211 59.3889L209 58.25L208 57.75L206 56.6111L204 55.3889L203 54.8056L201 53.6111L199 52.3889L197 51.25L196 50.75L194 49.6111L192 48.3889L190 47.25L189 46.75L187 45.6111L185 44.3889L183 43.1944L182 42.6111L180 41.3889L178 40.25L177 39.75L175 38.6111L173 37.3889L171 36.25L170 35.75L168 34.6111L166 33.3889L164 32.25L163 31.75L161 30.6111L159 29.3889L157 28.1944L156 27.6111L154 26.3889L152 25.25L151 24.75L149 23.6111L147 22.3889L145 21.25L144 20.75L142 19.6111L140 18.3889L138 17.25L137 16.75L135 15.6111L133 14.3889L131 13.1944L130 12.6111L128 11.3889L126 10.25L125 9.75L123 8.61111L121 7.38889L119 6.25L118 5.75L116 4.61111L114 3.38889L113 2.80556L111 1.63889L109 0.666672L108 0.416672L107 0.416672L106 0.666672L104 1.63889L102 2.80556L101 3.38889L99 4.61111L97 5.75L96 6.25L94 7.38889L92 8.61111L90 9.80556L89 10.3889L87 11.6111L85 12.75L84 13.25L82.0556 14.4167L81.0556 15.1944L79 17z"
     id="path4" />
  <path
     style="fill:#000000; stroke:none;"
     d="M82 23L83 24L82 23M33 31L33 35L34.4444 36.0278L35.5556 36.8056L37 38L39 37L39 38L41 40L39.5 40.2778L37.9444 40.9167L37 41.4167L35 42.6111L33 43.75L32 44.25L30 45.3889L28 46.6111L26 47.8056L25 48.3889L23 49.6111L21 50.75L20 51.25L18 52.3889L16 53.6111L14 54.75L13 55.25L11 56.3889L9 57.6111L7 58.75L6 59.25L5 59.8333L3.05556 60.9444L2.5 61.3056L1 62L0.777778 63.5L0.583333 65.0556L0.527778 66L0.472222 67.9722L0.444444 68.9167L0.388889 69.7778L0.333333 71.3056L0.361111 72.6944L0.388889 73.4167L0.444444 74.2222L0.472222 76L0.388889 77.7778L0.333333 79.3056L0.333333 80.6667L0.333333 83.3333L0.333333 90.6667L0.333333 98L0.333333 100.667L0.333333 102L0.388889 103.417L0.472222 105.083L0.444444 106.917L0.388889 107.778L0.333333 109.306L0.333333 110.667L0.333333 113.333L0.333333 120.667L0.333333 122.667L0.333333 124L0.388889 125.417L0.444444 126.222L0.472222 128L0.388889 129.778L0.361111 130.583L0.333333 132L0.388889 133.417L0.444444 134.222L0.472222 136L0.388889 137.778L0.333333 139.306L0.333333 140L0.333333 142L0.333333 147.333L0.333333 152L0.333333 153.333L0.333333 154L0.388889 155.417L0.444444 156.222L0.472222 158L0.388889 159.778L0.361111 160.583L0.333333 162L0.388889 163.417L0.444444 164.222L0.472222 166L0.388889 167.778L0.333333 169.306L0.333333 170.667L0.333333 173.333L0.333333 175.333L0.333333 176L0.388889 177.417L0.444444 178.222L0.472222 180L0.388889 181.778L0.361111 182.583L0.333333 184L0.388889 185.417L0.444444 186.222L0.472222 188L0.361111 189.778L0.305556 190.611L0.194444 191.333L0.138889 192.167L0.0555556 192.583L0 194L1.5 195.056L2.05556 195.389L4 196.611L6 197.75L7 198.25L9 199.389L11 200.611L13 201.75L14 202.25L16 203.389L18 204.611L20 205.75L21 206.25L23 207.389L25 208.583L27 209.583L28.9444 210.333L29.5 210.556L31 211L32.1389 208.944L32.5278 207.944L32.6944 206L32.3889 204.056L32.2222 203.056L32.0833 202.5L32 201L34 200.944L35 200.75L35.5 200.722L37 200L36.7222 198.5L36.0556 197.028L35.5 196.222L33.9167 194.694L32 193.417L30 192.389L28 191.389L26 190.139L25 189.472L23 188.389L21 187.389L19.0556 186.194L18.5 185.75L17 185L17.5556 183.583L17.5556 183.167L17.6667 182.361L17.6667 181.694L17.6667 180.333L17.6667 176.333L17.6667 175L17.6667 174.333L17.6667 173.667L17.7222 172.306L17.8056 170.806L17.7778 169.194L17.7222 168.417L17.6667 167L17.6667 165.667L17.6667 163.667L17.6667 157.667L17.6667 148.333L17.6667 145L17.6667 143.667L17.7222 142.306L17.7778 141.583L17.8056 140L17.7222 138.417L17.6667 137L17.6667 136.333L17.6667 135.667L17.7222 134.306L17.8056 132.806L17.7778 131.194L17.7222 130.417L17.6667 129L17.6667 127.667L17.6667 125.667L17.6667 123L17.6667 121.667L17.7222 120.306L17.8056 118.806L17.7778 117.194L17.7222 116.417L17.6667 115L17.6667 114.333L17.6667 113.667L17.7222 112.306L17.8056 110.806L17.7778 109.194L17.7222 108.417L17.6944 107L17.8056 105.583L17.9167 103.917L17.9167 103L17.8056 101.222L17.7222 100.417L17.6667 99L17.6667 97.6667L17.6667 95.6667L17.6667 93L17.6667 91.6667L17.7222 90.3056L17.8056 88.8056L17.7778 87.1944L17.7222 86.4167L17.6667 85L17.6667 84.3333L17.6667 83.6667L17.7222 82.3056L17.7778 81.5833L17.8056 80L17.7778 79.1944L17.7222 78.4167L17.6667 77L17.6667 76.3333L17.6667 75.6667L17.8333 74.3056L18.1389 73.6111L18.5833 72.8611L20.0833 71.4444L22 70.25L23 69.75L25 68.6111L27 67.3889L28 66.8333L29 66.25L30 65.75L32 64.6111L34 63.3889L35 62.8056L37 61.6111L39 60.3889L41 59.25L42 58.75L44 57.6111L46 56.3889L46.9444 55.8611L47.9444 55.25L48.5 55L50 54L49.9722 55.5L49.7778 57.0556L49.4167 59L49.3056 60L49.5278 61.9167L49.8889 62.7222L50.7778 63.9167L52 65L53.5 64.5L54.0556 64.1667L55.0556 63.75L56 63.2222L57.8889 62.1944L58.6944 61.5833L59.2222 61.2222L60 60L61.4722 60.4444L62.8056 60L64.0833 58.75L64.5833 57.9167L64.9722 56.9722L65.6111 55L65.8611 54L66.3611 52L66.6389 51L66.8611 50L67.1389 49L67.6389 47L67.8611 46L68.3889 44L68.6944 43L69.3056 41L69.6111 40L69.8611 39L70.1111 38L70.4722 36.0833L70.5833 35.2222L70.6111 34.3889L70.3611 32.8611L69.4722 31.4722L67.9167 30.4167L66.9722 30.0278L66 29.6944L64 29.1389L62 28.6389L61 28.3611L60 28.1389L58 27.6111L57 27.3056L55 26.6944L54 26.3889L52 25.8611L51 25.6389L49 25.1389L48 24.8889L46.0833 24.5278L45.2222 24.4167L44.3889 24.3889L42.8611 24.6389L41.3611 25.5L40.6111 26.1667L38.9167 27.5556L37 28.75L36.0556 29.1944L35.0556 29.7778L34.5 30L33 31z"
     id="path8" />
  <path
     style="fill:#7c2be7; stroke:none;"
     d="M41 89L41 169L42.5 170L43.0556 170.25L44.0556 170.861L45 171.389L47 172.611L48 173.194L50 174.389L52 175.611L54 176.75L55 177.25L57 178.389L59 179.611L61 180.75L62 181.25L64 182.389L66 183.611L68 184.75L69 185.25L71 186.389L73 187.611L75 188.806L76 189.389L78 190.611L80 191.75L81 192.25L83 193.389L85 194.611L87 195.75L88 196.25L90 197.389L92 198.611L94 199.75L95 200.25L97 201.389L99 202.611L101 203.806L102 204.389L104 205.611L106 206.722L107 207.139L109 207.722L110 207.833L111 207.722L113 207.139L114 206.722L116 205.611L118 204.389L119 203.806L121 202.611L123 201.389L125 200.25L126 199.75L128 198.611L130 197.389L132 196.25L133 195.75L135 194.611L137 193.389L139 192.25L140 191.75L142 190.611L144 189.389L145 188.806L147 187.611L149 186.389L151 185.25L152 184.75L154 183.611L156 182.389L158 181.25L159 180.75L161 179.611L163 178.389L165 177.25L166 176.75L168 175.611L170 174.389L172 173.194L173 172.611L175 171.389L175.944 170.861L176.944 170.25L177.5 170L179 169L179 89L177.5 88L176.944 87.75L175.944 87.1389L175 86.6111L173 85.3889L172 84.8056L170 83.6111L168 82.3889L166 81.25L165 80.75L163 79.6111L161 78.3889L159 77.25L158 76.75L156 75.6111L154 74.3889L152 73.25L151 72.75L149 71.6111L147 70.3889L146 69.8056L144 68.6111L142 67.3889L140 66.25L139 65.75L137 64.6111L135 63.3889L133 62.25L132 61.75L130 60.6111L128 59.3889L126 58.25L125 57.75L123 56.6111L121 55.3889L120 54.8056L118 53.6111L116 52.3889L114 51.2778L113 50.8611L111 50.2778L110 50.1667L109 50.2778L107 50.8611L106 51.2778L104 52.3889L102 53.6111L101 54.1944L99 55.3889L97 56.6111L95 57.75L94 58.25L92 59.3889L90 60.6111L88 61.75L87 62.25L85 63.3889L83 64.6111L81 65.75L80 66.25L78 67.3889L76 68.6111L75 69.1944L73 70.3889L71 71.6111L69 72.75L68 73.25L66 74.3889L64 75.6111L62 76.75L61 77.25L59 78.3889L57 79.6111L55 80.75L54 81.25L52 82.3889L50 83.6111L48 84.8056L47 85.3889L45 86.6111L44.0556 87.1389L43.0556 87.75L42.5 88L41 89z"
     id="path10" />
  <path
     style="fill:#ffffff; stroke:none;"
     d="M0 66L0 69L0.694444 68.25L0.694444 67.8056L0.694444 66.75L0 66M0 70L1 71L0 70M0 72L1 73L0 72M0 74L0 77L0.694444 76.25L0.694444 75.1944L0.694444 74.75L0 74M0 78L1 79L0 78M0 80L1 81L0 80M0 82L1 83L0 82M0 84L1 85L0 84M0 86L1 87L0 86M0 88L1 89L0 88M0 90L1 91L0 90M0 92L1 93L0 92M0 94L1 95L0 94M0 96L1 97L0 96M90 97L89.4167 99.0556L89.2222 100.056L89.0833 101L89 103L89 104L89 105L89 107L89 116L89 147L89 152L89 154L89 155L89 156L89.0833 158L89.5 159.917L90.4444 161.5L91.1944 162.083L93 163L94.5 161.778L95.0556 161.417L97 160.194L98 159.611L100 158.333L102 157L106 154.333L107 153.667L109 152.389L111 151.194L112 150.611L113 149.972L115 148.667L116 148L119 146L122 144L123 143.333L125 142.028L126 141.389L127 140.806L129 139.611L131 138.333L133 137L136 135L137 134.333L139 133.028L139.944 132.417L140.944 131.889L141.5 131.528L143 131L143 128L141.5 127.472L140.944 127.111L139.944 126.583L138 125.389L136 124.194L135 123.611L133 122.333L132 121.667L130 120.389L128 119.194L127 118.611L125 117.333L124 116.667L122 115.389L120 114.194L119 113.611L117 112.333L116 111.667L114 110.389L113 109.806L111 108.611L110 107.972L109 107.333L107 106.028L106 105.389L104 104.194L103 103.611L101 102.333L100 101.667L98 100.389L97 99.8056L96 99.1944L94 98.0833L93.0556 97.6389L91.5 97.1111L90 97M0 98L1 99L0 98M0 100L1 101L0 100M0 102L1 103L0 102M0 104L0 107L0.694444 106.25L0.694444 105.194L0.694444 104.75L0 104M0 108L1 109L0 108M0 110L1 111L0 110M0 112L1 113L0 112M0 114L1 115L0 114M0 116L1 117L0 116M0 118L1 119L0 118M0 120L1 121L0 120M0 122L1 123L0 122M0 124L1 125L0 124M0 126L0 129L0.694444 128.25L0.694444 127.806L0.694444 126.75L0 126M0 130L1 131L0 130M0 132L1 133L0 132M0 134L0 137L0.694444 136.25L0.694444 135.806L0.694444 134.75L0 134M0 138L1 139L0 138M0 140L1 141L0 140M0 142L1 143L0 142M0 144L1 145L0 144M0 146L1 147L0 146M0 148L1 149L0 148M0 150L1 151L0 150M0 152L1 153L0 152M0 154L1 155L0 154z"
     id="path12" />
  <path
     style="fill:#000000; stroke:none;"
     d="M207 154L206.028 155.5L205.444 157.056L205.083 159L205 161L205 163L205 165L205 170L205 172L205 173L204.889 175L204.667 176L203.667 177.917L201.972 179.528L200 180.75L199 181.25L197 182.389L195 183.611L194 184.194L192 185.389L190 186.611L188 187.75L187 188.25L185 189.389L183 190.611L181 191.75L180 192.25L178 193.389L176 194.611L174 195.75L173 196.25L171 197.389L169 198.611L168 199.194L166 200.389L164 201.611L162 202.75L161 203.25L159 204.389L157 205.611L155 206.75L154 207.25L152 208.389L150 209.611L149 210.194L147 211.389L145 212.611L143 213.75L142 214.25L140 215.389L138 216.611L136 217.75L135 218.25L133 219.389L132 220L131 220.611L129 221.75L128 222.25L126 223.389L124 224.611L122 225.806L121 226.389L119 227.611L117 228.75L116 229.25L115 229.833L114 230.389L112 231.611L111 232.167L110 232.722L108 233.444L107 233.5L106 233.417L104 232.583L102 231.389L100 230.25L98 229.167L97 228.611L95 227.389L93 226.25L92 225.75L90 224.611L88 223.389L86 222.25L85 221.75L83 220.611L81 219.389L79.0556 218.278L78.0556 217.833L77.5 217.5L76 217L76 215L77.5 214.556L78.0556 214.333L79.9444 213.639L80.9444 213.167L81.5 212.972L83 212L83 208L81.5 207L80.9444 206.75L79 205.611L77.0833 204.306L76.2778 203.639L75.0833 202.417L74 201L72.5 201.028L70.9444 201.222L70 201.389L68 201.861L67 202.139L66 202.361L65 202.639L64 202.861L62 203.361L61 203.639L60 203.861L58 204.389L57 204.694L55 205.306L54 205.611L53 205.861L52 206.139L51 206.389L49.0278 207.028L47.25 207.917L46.5278 208.5L46 209.222L45.4444 210.806L45.4167 212.389L45.5278 213.222L45.8889 215.028L46.3611 217L46.6389 218L46.8611 219L47.3889 221L47.6944 222L48.3056 224L48.6111 225L49.1389 227L49.3611 228L49.6389 229L49.8611 230L50.1389 231L50.3889 232L51.0278 233.972L51.9167 235.75L52.5 236.472L54 237.361L54.8056 237.611L55.6111 237.806L56.3889 238.111L57.2222 238.5L59.0278 239.611L60.9444 240.75L61.5 241L63 242L64.8056 241.083L65.5278 240.5L66.3611 239L66.6389 237.417L66.6667 236.694L66.6667 236L66.5833 234.583L66.3333 232.972L66.2222 232.472L66 231L67.5 231.694L68.0556 232.056L70 233.194L71 233.806L72 234.389L74 235.611L76 236.75L77 237.25L79 238.389L81 239.611L83 240.75L84 241.25L86 242.389L88 243.611L90 244.75L91 245.25L93 246.389L95 247.611L96 248.194L98 249.389L100 250.611L102 251.75L102.944 252.194L103.944 252.778L104.5 253L106 254L107.5 253.556L109.056 252.917L111 251.944L112 251.361L114 250.25L115 249.75L117 248.611L119 247.389L121 246.25L122 245.75L124 244.611L126 243.389L128 242.194L129 241.611L131 240.389L133 239.25L134 238.75L136 237.611L138 236.389L140 235.25L141 234.75L143 233.611L145 232.389L147 231.25L148 230.75L150 229.611L152 228.389L153 227.806L155 226.611L157 225.389L159 224.25L160 223.75L162 222.611L164 221.389L166 220.25L167 219.75L169 218.611L171 217.389L172 216.806L174 215.611L176 214.389L178 213.25L179 212.75L181 211.611L183 210.389L185 209.25L186 208.75L188 207.611L190 206.389L192 205.25L193 204.75L195 203.611L197 202.389L198 201.806L200 200.611L202 199.389L204 198.25L205 197.75L207 196.611L209 195.389L211 194.25L212 193.75L214 192.611L216 191.417L217 190.889L218.944 190L219.5 189.806L221 189L221 168L221 162L221 160L220.917 158L220.778 157.056L220.583 156.056L220 154L215 154L213.917 155.417L213.583 155.778L212.417 156.917L211 158L210.472 156.583L209.556 155.444L208.806 154.917L208.417 154.528L207 154z"
     id="path14" />
  <path
     style="fill:#ffffff; stroke:none;"
     d="M0 156L0 159L0.694444 158.25L0.694444 157.194L0.694444 156.75L0 156M0 160L1 161L0 160M0 162L1 163L0 162M0 164L0 167L0.694444 166.25L0.694444 165.194L0.694444 164.75L0 164M0 168L1 169L0 168M0 170L1 171L0 170M0 172L1 173L0 172M0 174L1 175L0 174M0 176L1 177L0 176M0 178L0 181L0.694444 180.25L0.694444 179.194L0.694444 178.75L0 178M0 182L1 183L0 182M0 184L1 185L0 184M0 186L0 189L0.694444 188.25L0.694444 187.194L0.694444 186.75L0 186M0 190L1 191L0 190z"
     id="path16" />
</svg>
